<svg width="1024" height="753" viewBox="0 0 1024 753" fill="none" xmlns="http://www.w3.org/2000/svg">
<g opacity="0.2" filter="url(#filter0_f_175_198)">
<ellipse cx="528.5" cy="117" rx="670.5" ry="350" fill="#338AF3"/>
</g>
<path d="M49.0349 353C50.5302 353 51.6622 353.63 52.4308 354.891C53.2134 356.138 53.6047 357.953 53.6047 360.336C53.6047 362.719 53.2134 364.541 52.4308 365.802C51.6622 367.063 50.5302 367.693 49.0349 367.693C47.5536 367.693 46.4216 367.063 45.639 365.802C44.8564 364.541 44.4651 362.719 44.4651 360.336C44.4651 357.967 44.8564 356.152 45.639 354.891C46.4216 353.63 47.5536 353 49.0349 353ZM45.9534 360.336C45.9534 362.026 46.1072 363.35 46.4146 364.306L51.0683 355.099C50.5791 354.448 49.9013 354.122 49.0349 354.122C48.0706 354.122 47.316 354.635 46.771 355.66C46.2259 356.672 45.9534 358.23 45.9534 360.336ZM49.0349 366.55C50.0131 366.55 50.7748 366.044 51.3198 365.033C51.8648 364.008 52.1373 362.442 52.1373 360.336C52.1373 358.549 51.9627 357.163 51.6133 356.18L46.9596 365.469C47.4627 366.19 48.1545 366.55 49.0349 366.55Z" fill="url(#paint0_linear_175_198)" fill-opacity="0.6"/>
<path d="M50.2926 390.135H53.3741V391.236H45.3874V390.135H48.9511V378.455L45.5551 380.471L44.9682 379.536L49.1607 376.959H50.2926V390.135Z" fill="url(#paint1_linear_175_198)" fill-opacity="0.6"/>
<path d="M49.0349 400.502C50.5302 400.502 51.6622 401.133 52.4308 402.393C53.2134 403.64 53.6047 405.455 53.6047 407.838C53.6047 410.221 53.2134 412.043 52.4308 413.304C51.6622 414.565 50.5302 415.195 49.0349 415.195C47.5536 415.195 46.4216 414.565 45.639 413.304C44.8564 412.043 44.4651 410.221 44.4651 407.838C44.4651 405.469 44.8564 403.654 45.639 402.393C46.4216 401.133 47.5536 400.502 49.0349 400.502ZM45.9534 407.838C45.9534 409.529 46.1072 410.852 46.4146 411.808L51.0683 402.601C50.5791 401.95 49.9013 401.624 49.0349 401.624C48.0706 401.624 47.316 402.137 46.771 403.162C46.2259 404.174 45.9534 405.732 45.9534 407.838ZM49.0349 414.052C50.0131 414.052 50.7748 413.546 51.3198 412.535C51.8648 411.51 52.1373 409.944 52.1373 407.838C52.1373 406.051 51.9627 404.665 51.6133 403.682L46.9596 412.971C47.4627 413.692 48.1545 414.052 49.0349 414.052Z" fill="url(#paint2_linear_175_198)" fill-opacity="0.6"/>
<path d="M50.2926 437.637H53.3741V438.738H45.3874V437.637H48.9511V425.957L45.5551 427.973L44.9682 427.038L49.1607 424.461H50.2926V437.637Z" fill="url(#paint3_linear_175_198)" fill-opacity="0.6"/>
<path d="M50.2926 461.388H53.3741V462.489H45.3874V461.388H48.9511V449.708L45.5551 451.724L44.9682 450.789L49.1607 448.212H50.2926V461.388Z" fill="url(#paint4_linear_175_198)" fill-opacity="0.6"/>
<path d="M49.0349 471.755C50.5302 471.755 51.6622 472.386 52.4308 473.646C53.2134 474.893 53.6047 476.708 53.6047 479.091C53.6047 481.474 53.2134 483.296 52.4308 484.557C51.6622 485.818 50.5302 486.448 49.0349 486.448C47.5536 486.448 46.4216 485.818 45.639 484.557C44.8564 483.296 44.4651 481.474 44.4651 479.091C44.4651 476.722 44.8564 474.907 45.639 473.646C46.4216 472.386 47.5536 471.755 49.0349 471.755ZM45.9534 479.091C45.9534 480.782 46.1072 482.105 46.4146 483.061L51.0683 473.854C50.5791 473.203 49.9013 472.878 49.0349 472.878C48.0706 472.878 47.316 473.39 46.771 474.415C46.2259 475.427 45.9534 476.985 45.9534 479.091ZM49.0349 485.305C50.0131 485.305 50.7748 484.8 51.3198 483.788C51.8648 482.763 52.1373 481.197 52.1373 479.091C52.1373 477.304 51.9627 475.919 51.6133 474.935L46.9596 484.225C47.4627 484.945 48.1545 485.305 49.0349 485.305Z" fill="url(#paint5_linear_175_198)" fill-opacity="0.6"/>
<path d="M50.2926 508.89H53.3741V509.992H45.3874V508.89H48.9511V497.21L45.5551 499.226L44.9682 498.291L49.1607 495.714H50.2926V508.89Z" fill="url(#paint6_linear_175_198)" fill-opacity="0.6"/>
<path d="M49.0349 519.257C50.5302 519.257 51.6622 519.888 52.4308 521.149C53.2134 522.396 53.6047 524.211 53.6047 526.594C53.6047 528.977 53.2134 530.798 52.4308 532.059C51.6622 533.32 50.5302 533.95 49.0349 533.95C47.5536 533.95 46.4216 533.32 45.639 532.059C44.8564 530.798 44.4651 528.977 44.4651 526.594C44.4651 524.224 44.8564 522.409 45.639 521.149C46.4216 519.888 47.5536 519.257 49.0349 519.257ZM45.9534 526.594C45.9534 528.284 46.1072 529.607 46.4146 530.563L51.0683 521.356C50.5791 520.705 49.9013 520.38 49.0349 520.38C48.0706 520.38 47.316 520.892 46.771 521.918C46.2259 522.929 45.9534 524.488 45.9534 526.594ZM49.0349 532.807C50.0131 532.807 50.7748 532.302 51.3198 531.29C51.8648 530.265 52.1373 528.699 52.1373 526.594C52.1373 524.806 51.9627 523.421 51.6133 522.437L46.9596 531.727C47.4627 532.447 48.1545 532.807 49.0349 532.807Z" fill="url(#paint7_linear_175_198)" fill-opacity="0.6"/>
<path d="M49.0349 543.008C50.5302 543.008 51.6622 543.639 52.4308 544.9C53.2134 546.147 53.6047 547.962 53.6047 550.345C53.6047 552.728 53.2134 554.549 52.4308 555.81C51.6622 557.071 50.5302 557.701 49.0349 557.701C47.5536 557.701 46.4216 557.071 45.639 555.81C44.8564 554.549 44.4651 552.728 44.4651 550.345C44.4651 547.975 44.8564 546.16 45.639 544.9C46.4216 543.639 47.5536 543.008 49.0349 543.008ZM45.9534 550.345C45.9534 552.035 46.1072 553.358 46.4146 554.314L51.0683 545.107C50.5791 544.456 49.9013 544.131 49.0349 544.131C48.0706 544.131 47.316 544.643 46.771 545.669C46.2259 546.68 45.9534 548.239 45.9534 550.345ZM49.0349 556.558C50.0131 556.558 50.7748 556.053 51.3198 555.041C51.8648 554.016 52.1373 552.451 52.1373 550.345C52.1373 548.557 51.9627 547.172 51.6133 546.188L46.9596 555.478C47.4627 556.198 48.1545 556.558 49.0349 556.558Z" fill="url(#paint8_linear_175_198)" fill-opacity="0.6"/>
<path d="M50.2926 580.143H53.3741V581.245H45.3874V580.143H48.9511V568.464L45.5551 570.48L44.9682 569.544L49.1607 566.967H50.2926V580.143Z" fill="url(#paint9_linear_175_198)" fill-opacity="0.6"/>
<path d="M49.0349 590.511C50.5302 590.511 51.6622 591.141 52.4308 592.402C53.2134 593.649 53.6047 595.464 53.6047 597.847C53.6047 600.23 53.2134 602.052 52.4308 603.312C51.6622 604.573 50.5302 605.204 49.0349 605.204C47.5536 605.204 46.4216 604.573 45.639 603.312C44.8564 602.052 44.4651 600.23 44.4651 597.847C44.4651 595.478 44.8564 593.663 45.639 592.402C46.4216 591.141 47.5536 590.511 49.0349 590.511ZM45.9534 597.847C45.9534 599.537 46.1072 600.86 46.4146 601.816L51.0683 592.61C50.5791 591.958 49.9013 591.633 49.0349 591.633C48.0706 591.633 47.316 592.145 46.771 593.171C46.2259 594.182 45.9534 595.741 45.9534 597.847ZM49.0349 604.061C50.0131 604.061 50.7748 603.555 51.3198 602.543C51.8648 601.518 52.1373 599.953 52.1373 597.847C52.1373 596.059 51.9627 594.674 51.6133 593.69L46.9596 602.98C47.4627 603.7 48.1545 604.061 49.0349 604.061Z" fill="url(#paint10_linear_175_198)" fill-opacity="0.6"/>
<path d="M50.2926 627.645H53.3741V628.747H45.3874V627.645H48.9511V615.966L45.5551 617.982L44.9682 617.046L49.1607 614.469H50.2926V627.645Z" fill="url(#paint11_linear_175_198)" fill-opacity="0.6"/>
<path d="M50.2926 651.396H53.3741V652.498H45.3874V651.396H48.9511V639.717L45.5551 641.733L44.9682 640.798L49.1607 638.221H50.2926V651.396Z" fill="url(#paint12_linear_175_198)" fill-opacity="0.6"/>
<path d="M87.9651 400.502C89.4604 400.502 90.5924 401.133 91.361 402.393C92.1436 403.64 92.5349 405.455 92.5349 407.838C92.5349 410.221 92.1436 412.043 91.361 413.304C90.5924 414.565 89.4604 415.195 87.9651 415.195C86.4838 415.195 85.3518 414.565 84.5692 413.304C83.7866 412.043 83.3953 410.221 83.3953 407.838C83.3953 405.469 83.7866 403.654 84.5692 402.393C85.3518 401.133 86.4838 400.502 87.9651 400.502ZM84.8836 407.838C84.8836 409.529 85.0374 410.852 85.3448 411.808L89.9985 402.601C89.5093 401.95 88.8315 401.624 87.9651 401.624C87.0008 401.624 86.2462 402.137 85.7012 403.162C85.1561 404.174 84.8836 405.732 84.8836 407.838ZM87.9651 414.052C88.9433 414.052 89.705 413.546 90.25 412.535C90.795 411.51 91.0675 409.944 91.0675 407.838C91.0675 406.051 90.8928 404.665 90.5435 403.682L85.8898 412.971C86.3929 413.692 87.0847 414.052 87.9651 414.052Z" fill="url(#paint13_linear_175_198)" fill-opacity="0.6"/>
<path d="M89.2228 437.637H92.3043V438.738H84.3176V437.637H87.8812V425.957L84.4853 427.973L83.8984 427.038L88.0909 424.461H89.2228V437.637Z" fill="url(#paint14_linear_175_198)" fill-opacity="0.6"/>
<path d="M87.9651 448.004C89.4604 448.004 90.5924 448.635 91.361 449.895C92.1436 451.142 92.5349 452.957 92.5349 455.34C92.5349 457.723 92.1436 459.545 91.361 460.806C90.5924 462.067 89.4604 462.697 87.9651 462.697C86.4838 462.697 85.3518 462.067 84.5692 460.806C83.7866 459.545 83.3953 457.723 83.3953 455.34C83.3953 452.971 83.7866 451.156 84.5692 449.895C85.3518 448.635 86.4838 448.004 87.9651 448.004ZM84.8836 455.34C84.8836 457.031 85.0374 458.354 85.3448 459.31L89.9985 450.103C89.5093 449.452 88.8315 449.126 87.9651 449.126C87.0008 449.126 86.2462 449.639 85.7012 450.664C85.1561 451.676 84.8836 453.234 84.8836 455.34ZM87.9651 461.554C88.9433 461.554 89.705 461.049 90.25 460.037C90.795 459.012 91.0675 457.446 91.0675 455.34C91.0675 453.553 90.8928 452.168 90.5435 451.184L85.8898 460.474C86.3929 461.194 87.0847 461.554 87.9651 461.554Z" fill="url(#paint15_linear_175_198)" fill-opacity="0.6"/>
<path d="M87.9651 471.755C89.4604 471.755 90.5924 472.386 91.361 473.646C92.1436 474.893 92.5349 476.708 92.5349 479.091C92.5349 481.474 92.1436 483.296 91.361 484.557C90.5924 485.818 89.4604 486.448 87.9651 486.448C86.4838 486.448 85.3518 485.818 84.5692 484.557C83.7866 483.296 83.3953 481.474 83.3953 479.091C83.3953 476.722 83.7866 474.907 84.5692 473.646C85.3518 472.386 86.4838 471.755 87.9651 471.755ZM84.8836 479.091C84.8836 480.782 85.0374 482.105 85.3448 483.061L89.9985 473.854C89.5093 473.203 88.8315 472.878 87.9651 472.878C87.0008 472.878 86.2462 473.39 85.7012 474.415C85.1561 475.427 84.8836 476.985 84.8836 479.091ZM87.9651 485.305C88.9433 485.305 89.705 484.8 90.25 483.788C90.795 482.763 91.0675 481.197 91.0675 479.091C91.0675 477.304 90.8928 475.919 90.5435 474.935L85.8898 484.225C86.3929 484.945 87.0847 485.305 87.9651 485.305Z" fill="url(#paint16_linear_175_198)" fill-opacity="0.6"/>
<path d="M89.2228 508.89H92.3043V509.992H84.3176V508.89H87.8812V497.21L84.4853 499.226L83.8984 498.291L88.0909 495.714H89.2228V508.89Z" fill="url(#paint17_linear_175_198)" fill-opacity="0.6"/>
<path d="M87.9651 519.257C89.4604 519.257 90.5924 519.888 91.361 521.149C92.1436 522.396 92.5349 524.211 92.5349 526.594C92.5349 528.977 92.1436 530.798 91.361 532.059C90.5924 533.32 89.4604 533.95 87.9651 533.95C86.4838 533.95 85.3518 533.32 84.5692 532.059C83.7866 530.798 83.3953 528.977 83.3953 526.594C83.3953 524.224 83.7866 522.409 84.5692 521.149C85.3518 519.888 86.4838 519.257 87.9651 519.257ZM84.8836 526.594C84.8836 528.284 85.0374 529.607 85.3448 530.563L89.9985 521.356C89.5093 520.705 88.8315 520.38 87.9651 520.38C87.0008 520.38 86.2462 520.892 85.7012 521.918C85.1561 522.929 84.8836 524.488 84.8836 526.594ZM87.9651 532.807C88.9433 532.807 89.705 532.302 90.25 531.29C90.795 530.265 91.0675 528.699 91.0675 526.594C91.0675 524.806 90.8928 523.421 90.5435 522.437L85.8898 531.727C86.3929 532.447 87.0847 532.807 87.9651 532.807Z" fill="url(#paint18_linear_175_198)" fill-opacity="0.6"/>
<path d="M89.2228 556.392H92.3043V557.494H84.3176V556.392H87.8812V544.713L84.4853 546.728L83.8984 545.793L88.0909 543.216H89.2228V556.392Z" fill="url(#paint19_linear_175_198)" fill-opacity="0.6"/>
<path d="M87.9651 566.76C89.4604 566.76 90.5924 567.39 91.361 568.651C92.1436 569.898 92.5349 571.713 92.5349 574.096C92.5349 576.479 92.1436 578.301 91.361 579.561C90.5924 580.822 89.4604 581.453 87.9651 581.453C86.4838 581.453 85.3518 580.822 84.5692 579.561C83.7866 578.301 83.3953 576.479 83.3953 574.096C83.3953 571.726 83.7866 569.911 84.5692 568.651C85.3518 567.39 86.4838 566.76 87.9651 566.76ZM84.8836 574.096C84.8836 575.786 85.0374 577.109 85.3448 578.065L89.9985 568.859C89.5093 568.207 88.8315 567.882 87.9651 567.882C87.0008 567.882 86.2462 568.394 85.7012 569.42C85.1561 570.431 84.8836 571.99 84.8836 574.096ZM87.9651 580.31C88.9433 580.31 89.705 579.804 90.25 578.792C90.795 577.767 91.0675 576.202 91.0675 574.096C91.0675 572.308 90.8928 570.923 90.5435 569.939L85.8898 579.229C86.3929 579.949 87.0847 580.31 87.9651 580.31Z" fill="url(#paint20_linear_175_198)" fill-opacity="0.6"/>
<path d="M87.9651 590.511C89.4604 590.511 90.5924 591.141 91.361 592.402C92.1436 593.649 92.5349 595.464 92.5349 597.847C92.5349 600.23 92.1436 602.052 91.361 603.312C90.5924 604.573 89.4604 605.204 87.9651 605.204C86.4838 605.204 85.3518 604.573 84.5692 603.312C83.7866 602.052 83.3953 600.23 83.3953 597.847C83.3953 595.478 83.7866 593.663 84.5692 592.402C85.3518 591.141 86.4838 590.511 87.9651 590.511ZM84.8836 597.847C84.8836 599.537 85.0374 600.86 85.3448 601.816L89.9985 592.61C89.5093 591.958 88.8315 591.633 87.9651 591.633C87.0008 591.633 86.2462 592.145 85.7012 593.171C85.1561 594.182 84.8836 595.741 84.8836 597.847ZM87.9651 604.061C88.9433 604.061 89.705 603.555 90.25 602.543C90.795 601.518 91.0675 599.953 91.0675 597.847C91.0675 596.059 90.8928 594.674 90.5435 593.69L85.8898 602.98C86.3929 603.7 87.0847 604.061 87.9651 604.061Z" fill="url(#paint21_linear_175_198)" fill-opacity="0.6"/>
<path d="M89.2228 627.645H92.3043V628.747H84.3176V627.645H87.8812V615.966L84.4853 617.982L83.8984 617.046L88.0909 614.469H89.2228V627.645Z" fill="url(#paint22_linear_175_198)" fill-opacity="0.6"/>
<path d="M87.9651 638.013C89.4604 638.013 90.5924 638.643 91.361 639.904C92.1436 641.151 92.5349 642.966 92.5349 645.349C92.5349 647.732 92.1436 649.554 91.361 650.815C90.5924 652.075 89.4604 652.706 87.9651 652.706C86.4838 652.706 85.3518 652.075 84.5692 650.815C83.7866 649.554 83.3953 647.732 83.3953 645.349C83.3953 642.98 83.7866 641.165 84.5692 639.904C85.3518 638.643 86.4838 638.013 87.9651 638.013ZM84.8836 645.349C84.8836 647.039 85.0374 648.362 85.3448 649.318L89.9985 640.112C89.5093 639.461 88.8315 639.135 87.9651 639.135C87.0008 639.135 86.2462 639.648 85.7012 640.673C85.1561 641.684 84.8836 643.243 84.8836 645.349ZM87.9651 651.563C88.9433 651.563 89.705 651.057 90.25 650.046C90.795 649.02 91.0675 647.455 91.0675 645.349C91.0675 643.562 90.8928 642.176 90.5435 641.192L85.8898 650.482C86.3929 651.202 87.0847 651.563 87.9651 651.563Z" fill="url(#paint23_linear_175_198)" fill-opacity="0.6"/>
<path d="M89.2228 675.148H92.3043V676.249H84.3176V675.148H87.8812V663.468L84.4853 665.484L83.8984 664.549L88.0909 661.972H89.2228V675.148Z" fill="url(#paint24_linear_175_198)" fill-opacity="0.6"/>
<path d="M89.2228 698.899H92.3043V700H84.3176V698.899H87.8812V687.219L84.4853 689.235L83.8984 688.3L88.0909 685.723H89.2228V698.899Z" fill="url(#paint25_linear_175_198)" fill-opacity="0.6"/>
<path d="M29.5698 424.253C31.0651 424.253 32.1971 424.884 32.9657 426.144C33.7483 427.391 34.1396 429.206 34.1396 431.589C34.1396 433.972 33.7483 435.794 32.9657 437.055C32.1971 438.316 31.0651 438.946 29.5698 438.946C28.0885 438.946 26.9565 438.316 26.1739 437.055C25.3913 435.794 25 433.972 25 431.589C25 429.22 25.3913 427.405 26.1739 426.144C26.9565 424.884 28.0885 424.253 29.5698 424.253ZM26.4883 431.589C26.4883 433.28 26.6421 434.603 26.9495 435.559L31.6032 426.352C31.114 425.701 30.4363 425.375 29.5698 425.375C28.6055 425.375 27.8509 425.888 27.3059 426.913C26.7608 427.925 26.4883 429.483 26.4883 431.589ZM29.5698 437.803C30.5481 437.803 31.3097 437.297 31.8547 436.286C32.3997 435.261 32.6722 433.695 32.6722 431.589C32.6722 429.802 32.4976 428.417 32.1482 427.433L27.4945 436.722C27.9976 437.443 28.6894 437.803 29.5698 437.803Z" fill="url(#paint26_linear_175_198)" fill-opacity="0.6"/>
<path d="M29.5698 448.004C31.0651 448.004 32.1971 448.635 32.9657 449.895C33.7483 451.142 34.1396 452.957 34.1396 455.34C34.1396 457.723 33.7483 459.545 32.9657 460.806C32.1971 462.067 31.0651 462.697 29.5698 462.697C28.0885 462.697 26.9565 462.067 26.1739 460.806C25.3913 459.545 25 457.723 25 455.34C25 452.971 25.3913 451.156 26.1739 449.895C26.9565 448.635 28.0885 448.004 29.5698 448.004ZM26.4883 455.34C26.4883 457.031 26.6421 458.354 26.9495 459.31L31.6032 450.103C31.114 449.452 30.4363 449.126 29.5698 449.126C28.6055 449.126 27.8509 449.639 27.3059 450.664C26.7608 451.676 26.4883 453.234 26.4883 455.34ZM29.5698 461.554C30.5481 461.554 31.3097 461.049 31.8547 460.037C32.3997 459.012 32.6722 457.446 32.6722 455.34C32.6722 453.553 32.4976 452.168 32.1482 451.184L27.4945 460.474C27.9976 461.194 28.6894 461.554 29.5698 461.554Z" fill="url(#paint27_linear_175_198)" fill-opacity="0.6"/>
<path d="M30.8276 485.139H33.909V486.24H25.9223V485.139H29.486V473.459L26.09 475.475L25.5031 474.54L29.6956 471.963H30.8276V485.139Z" fill="url(#paint28_linear_175_198)" fill-opacity="0.6"/>
<path d="M29.5698 495.506C31.0651 495.506 32.1971 496.137 32.9657 497.398C33.7483 498.644 34.1396 500.459 34.1396 502.842C34.1396 505.225 33.7483 507.047 32.9657 508.308C32.1971 509.569 31.0651 510.199 29.5698 510.199C28.0885 510.199 26.9565 509.569 26.1739 508.308C25.3913 507.047 25 505.225 25 502.842C25 500.473 25.3913 498.658 26.1739 497.398C26.9565 496.137 28.0885 495.506 29.5698 495.506ZM26.4883 502.842C26.4883 504.533 26.6421 505.856 26.9495 506.812L31.6032 497.605C31.114 496.954 30.4363 496.629 29.5698 496.629C28.6055 496.629 27.8509 497.141 27.3059 498.166C26.7608 499.178 26.4883 500.737 26.4883 502.842ZM29.5698 509.056C30.5481 509.056 31.3097 508.551 31.8547 507.539C32.3997 506.514 32.6722 504.948 32.6722 502.842C32.6722 501.055 32.4976 499.67 32.1482 498.686L27.4945 507.976C27.9976 508.696 28.6894 509.056 29.5698 509.056Z" fill="url(#paint29_linear_175_198)" fill-opacity="0.6"/>
<path d="M30.8276 532.641H33.909V533.743H25.9223V532.641H29.486V520.962L26.09 522.977L25.5031 522.042L29.6956 519.465H30.8276V532.641Z" fill="url(#paint30_linear_175_198)" fill-opacity="0.6"/>
<path d="M30.8276 556.392H33.909V557.494H25.9223V556.392H29.486V544.713L26.09 546.728L25.5031 545.793L29.6956 543.216H30.8276V556.392Z" fill="url(#paint31_linear_175_198)" fill-opacity="0.6"/>
<path d="M69.7577 390.135H72.8392V391.236H64.8525V390.135H68.4162V378.455L65.0202 380.471L64.4333 379.536L68.6258 376.959H69.7577V390.135Z" fill="url(#paint32_linear_175_198)" fill-opacity="0.6"/>
<path d="M68.5 400.502C69.9953 400.502 71.1273 401.133 71.8959 402.393C72.6785 403.64 73.0698 405.455 73.0698 407.838C73.0698 410.221 72.6785 412.043 71.8959 413.304C71.1273 414.565 69.9953 415.195 68.5 415.195C67.0187 415.195 65.8867 414.565 65.1041 413.304C64.3215 412.043 63.9302 410.221 63.9302 407.838C63.9302 405.469 64.3215 403.654 65.1041 402.393C65.8867 401.133 67.0187 400.502 68.5 400.502ZM65.4185 407.838C65.4185 409.529 65.5723 410.852 65.8797 411.808L70.5334 402.601C70.0442 401.95 69.3664 401.624 68.5 401.624C67.5357 401.624 66.7811 402.137 66.2361 403.162C65.691 404.174 65.4185 405.732 65.4185 407.838ZM68.5 414.052C69.4782 414.052 70.2399 413.546 70.7849 412.535C71.3299 411.51 71.6024 409.944 71.6024 407.838C71.6024 406.051 71.4277 404.665 71.0784 403.682L66.4247 412.971C66.9278 413.692 67.6196 414.052 68.5 414.052Z" fill="url(#paint33_linear_175_198)" fill-opacity="0.6"/>
<path d="M69.7577 437.637H72.8392V438.738H64.8525V437.637H68.4162V425.957L65.0202 427.973L64.4333 427.038L68.6258 424.461H69.7577V437.637Z" fill="url(#paint34_linear_175_198)" fill-opacity="0.6"/>
<path d="M69.7577 461.388H72.8392V462.489H64.8525V461.388H68.4162V449.708L65.0202 451.724L64.4333 450.789L68.6258 448.212H69.7577V461.388Z" fill="url(#paint35_linear_175_198)" fill-opacity="0.6"/>
<path d="M68.5 471.755C69.9953 471.755 71.1273 472.386 71.8959 473.646C72.6785 474.893 73.0698 476.708 73.0698 479.091C73.0698 481.474 72.6785 483.296 71.8959 484.557C71.1273 485.818 69.9953 486.448 68.5 486.448C67.0187 486.448 65.8867 485.818 65.1041 484.557C64.3215 483.296 63.9302 481.474 63.9302 479.091C63.9302 476.722 64.3215 474.907 65.1041 473.646C65.8867 472.386 67.0187 471.755 68.5 471.755ZM65.4185 479.091C65.4185 480.782 65.5723 482.105 65.8797 483.061L70.5334 473.854C70.0442 473.203 69.3664 472.878 68.5 472.878C67.5357 472.878 66.7811 473.39 66.2361 474.415C65.691 475.427 65.4185 476.985 65.4185 479.091ZM68.5 485.305C69.4782 485.305 70.2399 484.8 70.7849 483.788C71.3299 482.763 71.6024 481.197 71.6024 479.091C71.6024 477.304 71.4277 475.919 71.0784 474.935L66.4247 484.225C66.9278 484.945 67.6196 485.305 68.5 485.305Z" fill="url(#paint36_linear_175_198)" fill-opacity="0.6"/>
<path d="M69.7577 508.89H72.8392V509.992H64.8525V508.89H68.4162V497.21L65.0202 499.226L64.4333 498.291L68.6258 495.714H69.7577V508.89Z" fill="url(#paint37_linear_175_198)" fill-opacity="0.6"/>
<path d="M69.7577 532.641H72.8392V533.743H64.8525V532.641H68.4162V520.962L65.0202 522.977L64.4333 522.042L68.6258 519.465H69.7577V532.641Z" fill="url(#paint38_linear_175_198)" fill-opacity="0.6"/>
<path d="M68.5 543.008C69.9953 543.008 71.1273 543.639 71.8959 544.9C72.6785 546.147 73.0698 547.962 73.0698 550.345C73.0698 552.728 72.6785 554.549 71.8959 555.81C71.1273 557.071 69.9953 557.701 68.5 557.701C67.0187 557.701 65.8867 557.071 65.1041 555.81C64.3215 554.549 63.9302 552.728 63.9302 550.345C63.9302 547.975 64.3215 546.16 65.1041 544.9C65.8867 543.639 67.0187 543.008 68.5 543.008ZM65.4185 550.345C65.4185 552.035 65.5723 553.358 65.8797 554.314L70.5334 545.107C70.0442 544.456 69.3664 544.131 68.5 544.131C67.5357 544.131 66.7811 544.643 66.2361 545.669C65.691 546.68 65.4185 548.239 65.4185 550.345ZM68.5 556.558C69.4782 556.558 70.2399 556.053 70.7849 555.041C71.3299 554.016 71.6024 552.451 71.6024 550.345C71.6024 548.557 71.4277 547.172 71.0784 546.188L66.4247 555.478C66.9278 556.198 67.6196 556.558 68.5 556.558Z" fill="url(#paint39_linear_175_198)" fill-opacity="0.6"/>
<path d="M69.7577 580.143H72.8392V581.245H64.8525V580.143H68.4162V568.464L65.0202 570.48L64.4333 569.544L68.6258 566.967H69.7577V580.143Z" fill="url(#paint40_linear_175_198)" fill-opacity="0.6"/>
<path d="M68.5 590.511C69.9953 590.511 71.1273 591.141 71.8959 592.402C72.6785 593.649 73.0698 595.464 73.0698 597.847C73.0698 600.23 72.6785 602.052 71.8959 603.312C71.1273 604.573 69.9953 605.204 68.5 605.204C67.0187 605.204 65.8867 604.573 65.1041 603.312C64.3215 602.052 63.9302 600.23 63.9302 597.847C63.9302 595.478 64.3215 593.663 65.1041 592.402C65.8867 591.141 67.0187 590.511 68.5 590.511ZM65.4185 597.847C65.4185 599.537 65.5723 600.86 65.8797 601.816L70.5334 592.61C70.0442 591.958 69.3664 591.633 68.5 591.633C67.5357 591.633 66.7811 592.145 66.2361 593.171C65.691 594.182 65.4185 595.741 65.4185 597.847ZM68.5 604.061C69.4782 604.061 70.2399 603.555 70.7849 602.543C71.3299 601.518 71.6024 599.953 71.6024 597.847C71.6024 596.059 71.4277 594.674 71.0784 593.69L66.4247 602.98C66.9278 603.7 67.6196 604.061 68.5 604.061Z" fill="url(#paint41_linear_175_198)" fill-opacity="0.6"/>
<path d="M107.43 376.751C108.926 376.751 110.057 377.381 110.826 378.642C111.609 379.889 112 381.704 112 384.087C112 386.47 111.609 388.292 110.826 389.553C110.057 390.814 108.926 391.444 107.43 391.444C105.949 391.444 104.817 390.814 104.034 389.553C103.252 388.292 102.86 386.47 102.86 384.087C102.86 381.718 103.252 379.903 104.034 378.642C104.817 377.381 105.949 376.751 107.43 376.751ZM104.349 384.087C104.349 385.777 104.502 387.101 104.81 388.057L109.464 378.85C108.974 378.199 108.297 377.873 107.43 377.873C106.466 377.873 105.711 378.386 105.166 379.411C104.621 380.423 104.349 381.981 104.349 384.087ZM107.43 390.301C108.408 390.301 109.17 389.795 109.715 388.784C110.26 387.759 110.533 386.193 110.533 384.087C110.533 382.3 110.358 380.914 110.009 379.931L105.355 389.22C105.858 389.941 106.55 390.301 107.43 390.301Z" fill="url(#paint42_linear_175_198)" fill-opacity="0.6"/>
<path d="M108.688 413.886H111.769V414.987H103.783V413.886H107.346V402.206L103.95 404.222L103.363 403.287L107.556 400.71H108.688V413.886Z" fill="url(#paint43_linear_175_198)" fill-opacity="0.6"/>
<path d="M108.688 437.637H111.769V438.738H103.783V437.637H107.346V425.957L103.95 427.973L103.363 427.038L107.556 424.461H108.688V437.637Z" fill="url(#paint44_linear_175_198)" fill-opacity="0.6"/>
<path d="M107.43 448.004C108.926 448.004 110.057 448.635 110.826 449.895C111.609 451.142 112 452.957 112 455.34C112 457.723 111.609 459.545 110.826 460.806C110.057 462.067 108.926 462.697 107.43 462.697C105.949 462.697 104.817 462.067 104.034 460.806C103.252 459.545 102.86 457.723 102.86 455.34C102.86 452.971 103.252 451.156 104.034 449.895C104.817 448.635 105.949 448.004 107.43 448.004ZM104.349 455.34C104.349 457.031 104.502 458.354 104.81 459.31L109.464 450.103C108.974 449.452 108.297 449.126 107.43 449.126C106.466 449.126 105.711 449.639 105.166 450.664C104.621 451.676 104.349 453.234 104.349 455.34ZM107.43 461.554C108.408 461.554 109.17 461.049 109.715 460.037C110.26 459.012 110.533 457.446 110.533 455.34C110.533 453.553 110.358 452.168 110.009 451.184L105.355 460.474C105.858 461.194 106.55 461.554 107.43 461.554Z" fill="url(#paint45_linear_175_198)" fill-opacity="0.6"/>
<path d="M107.43 471.755C108.926 471.755 110.057 472.386 110.826 473.646C111.609 474.893 112 476.708 112 479.091C112 481.474 111.609 483.296 110.826 484.557C110.057 485.818 108.926 486.448 107.43 486.448C105.949 486.448 104.817 485.818 104.034 484.557C103.252 483.296 102.86 481.474 102.86 479.091C102.86 476.722 103.252 474.907 104.034 473.646C104.817 472.386 105.949 471.755 107.43 471.755ZM104.349 479.091C104.349 480.782 104.502 482.105 104.81 483.061L109.464 473.854C108.974 473.203 108.297 472.878 107.43 472.878C106.466 472.878 105.711 473.39 105.166 474.415C104.621 475.427 104.349 476.985 104.349 479.091ZM107.43 485.305C108.408 485.305 109.17 484.8 109.715 483.788C110.26 482.763 110.533 481.197 110.533 479.091C110.533 477.304 110.358 475.919 110.009 474.935L105.355 484.225C105.858 484.945 106.55 485.305 107.43 485.305Z" fill="url(#paint46_linear_175_198)" fill-opacity="0.6"/>
<g opacity="0.6">
<path d="M935.93 53C937.356 53 938.436 53.605 939.17 54.8149C939.916 56.0115 940.29 57.7532 940.29 60.0401C940.29 62.327 939.916 64.0754 939.17 65.2853C938.436 66.4952 937.356 67.1002 935.93 67.1002C934.517 67.1002 933.437 66.4952 932.69 65.2853C931.943 64.0754 931.57 62.327 931.57 60.0401C931.57 57.7665 931.943 56.0248 932.69 54.8149C933.437 53.605 934.517 53 935.93 53ZM932.99 60.0401C932.99 61.6622 933.137 62.932 933.43 63.8494L937.87 55.0143C937.403 54.3894 936.756 54.077 935.93 54.077C935.01 54.077 934.29 54.5689 933.77 55.5528C933.25 56.5234 932.99 58.0192 932.99 60.0401ZM935.93 66.0033C936.863 66.0033 937.59 65.518 938.11 64.5474C938.63 63.5635 938.89 62.0611 938.89 60.0401C938.89 58.325 938.723 56.9954 938.39 56.0514L933.95 64.9662C934.43 65.6576 935.09 66.0033 935.93 66.0033Z" fill="url(#paint47_linear_175_198)"/>
<path d="M937.13 88.6365H940.07V89.6936H932.45V88.6365H935.85V77.4282L932.61 79.3627L932.05 78.4653L936.05 75.9922H937.13V88.6365Z" fill="url(#paint48_linear_175_198)"/>
<path d="M935.93 98.5856C937.356 98.5856 938.436 99.1906 939.17 100.4C939.916 101.597 940.29 103.339 940.29 105.626C940.29 107.913 939.916 109.661 939.17 110.871C938.436 112.081 937.356 112.686 935.93 112.686C934.517 112.686 933.437 112.081 932.69 110.871C931.943 109.661 931.57 107.913 931.57 105.626C931.57 103.352 931.943 101.61 932.69 100.4C933.437 99.1906 934.517 98.5856 935.93 98.5856ZM932.99 105.626C932.99 107.248 933.137 108.518 933.43 109.435L937.87 100.6C937.403 99.975 936.756 99.6626 935.93 99.6626C935.01 99.6626 934.29 100.155 933.77 101.138C933.25 102.109 932.99 103.605 932.99 105.626ZM935.93 111.589C936.863 111.589 937.59 111.104 938.11 110.133C938.63 109.149 938.89 107.647 938.89 105.626C938.89 103.911 938.723 102.581 938.39 101.637L933.95 110.552C934.43 111.243 935.09 111.589 935.93 111.589Z" fill="url(#paint49_linear_175_198)"/>
<path d="M937.13 134.222H940.07V135.279H932.45V134.222H935.85V123.014L932.61 124.948L932.05 124.051L936.05 121.578H937.13V134.222Z" fill="url(#paint50_linear_175_198)"/>
<path d="M937.13 157.015H940.07V158.072H932.45V157.015H935.85V145.807L932.61 147.741L932.05 146.844L936.05 144.371H937.13V157.015Z" fill="url(#paint51_linear_175_198)"/>
<path d="M935.93 166.964C937.356 166.964 938.436 167.569 939.17 168.779C939.916 169.976 940.29 171.717 940.29 174.004C940.29 176.291 939.916 178.039 939.17 179.249C938.436 180.459 937.356 181.064 935.93 181.064C934.517 181.064 933.437 180.459 932.69 179.249C931.943 178.039 931.57 176.291 931.57 174.004C931.57 171.731 931.943 169.989 932.69 168.779C933.437 167.569 934.517 166.964 935.93 166.964ZM932.99 174.004C932.99 175.626 933.137 176.896 933.43 177.813L937.87 168.978C937.403 168.353 936.756 168.041 935.93 168.041C935.01 168.041 934.29 168.533 933.77 169.517C933.25 170.487 932.99 171.983 932.99 174.004ZM935.93 179.967C936.863 179.967 937.59 179.482 938.11 178.511C938.63 177.528 938.89 176.025 938.89 174.004C938.89 172.289 938.723 170.959 938.39 170.015L933.95 178.93C934.43 179.622 935.09 179.967 935.93 179.967Z" fill="url(#paint52_linear_175_198)"/>
<path d="M937.13 202.601H940.07V203.658H932.45V202.601H935.85V191.392L932.61 193.327L932.05 192.429L936.05 189.956H937.13V202.601Z" fill="url(#paint53_linear_175_198)"/>
<path d="M935.93 212.55C937.356 212.55 938.436 213.155 939.17 214.365C939.916 215.561 940.29 217.303 940.29 219.59C940.29 221.877 939.916 223.625 939.17 224.835C938.436 226.045 937.356 226.65 935.93 226.65C934.517 226.65 933.437 226.045 932.69 224.835C931.943 223.625 931.57 221.877 931.57 219.59C931.57 217.316 931.943 215.574 932.69 214.365C933.437 213.155 934.517 212.55 935.93 212.55ZM932.99 219.59C932.99 221.212 933.137 222.482 933.43 223.399L937.87 214.564C937.403 213.939 936.756 213.627 935.93 213.627C935.01 213.627 934.29 214.119 933.77 215.102C933.25 216.073 932.99 217.569 932.99 219.59ZM935.93 225.553C936.863 225.553 937.59 225.068 938.11 224.097C938.63 223.113 938.89 221.611 938.89 219.59C938.89 217.875 938.723 216.545 938.39 215.601L933.95 224.516C934.43 225.207 935.09 225.553 935.93 225.553Z" fill="url(#paint54_linear_175_198)"/>
<path d="M935.93 235.342C937.356 235.342 938.436 235.947 939.17 237.157C939.916 238.354 940.29 240.096 940.29 242.383C940.29 244.669 939.916 246.418 939.17 247.628C938.436 248.838 937.356 249.443 935.93 249.443C934.517 249.443 933.437 248.838 932.69 247.628C931.943 246.418 931.57 244.669 931.57 242.383C931.57 240.109 931.943 238.367 932.69 237.157C933.437 235.947 934.517 235.342 935.93 235.342ZM932.99 242.383C932.99 244.005 933.137 245.274 933.43 246.192L937.87 237.357C937.403 236.732 936.756 236.419 935.93 236.419C935.01 236.419 934.29 236.911 933.77 237.895C933.25 238.866 932.99 240.362 932.99 242.383ZM935.93 248.346C936.863 248.346 937.59 247.86 938.11 246.89C938.63 245.906 938.89 244.404 938.89 242.383C938.89 240.667 938.723 239.338 938.39 238.394L933.95 247.309C934.43 248 935.09 248.346 935.93 248.346Z" fill="url(#paint55_linear_175_198)"/>
<path d="M937.13 270.979H940.07V272.036H932.45V270.979H935.85V259.771L932.61 261.705L932.05 260.808L936.05 258.335H937.13V270.979Z" fill="url(#paint56_linear_175_198)"/>
<path d="M935.93 280.928C937.356 280.928 938.436 281.533 939.17 282.743C939.916 283.94 940.29 285.681 940.29 287.968C940.29 290.255 939.916 292.003 939.17 293.213C938.436 294.423 937.356 295.028 935.93 295.028C934.517 295.028 933.437 294.423 932.69 293.213C931.943 292.003 931.57 290.255 931.57 287.968C931.57 285.695 931.943 283.953 932.69 282.743C933.437 281.533 934.517 280.928 935.93 280.928ZM932.99 287.968C932.99 289.59 933.137 290.86 933.43 291.777L937.87 282.942C937.403 282.317 936.756 282.005 935.93 282.005C935.01 282.005 934.29 282.497 933.77 283.481C933.25 284.451 932.99 285.947 932.99 287.968ZM935.93 293.931C936.863 293.931 937.59 293.446 938.11 292.475C938.63 291.492 938.89 289.989 938.89 287.968C938.89 286.253 938.723 284.923 938.39 283.979L933.95 292.894C934.43 293.586 935.09 293.931 935.93 293.931Z" fill="url(#paint57_linear_175_198)"/>
<path d="M937.13 316.565H940.07V317.622H932.45V316.565H935.85V305.356L932.61 307.291L932.05 306.393L936.05 303.92H937.13V316.565Z" fill="url(#paint58_linear_175_198)"/>
<path d="M937.13 339.357H940.07V340.414H932.45V339.357H935.85V328.149L932.61 330.084L932.05 329.186L936.05 326.713H937.13V339.357Z" fill="url(#paint59_linear_175_198)"/>
<path d="M973.07 98.5856C974.497 98.5856 975.577 99.1906 976.31 100.4C977.057 101.597 977.43 103.339 977.43 105.626C977.43 107.913 977.057 109.661 976.31 110.871C975.577 112.081 974.497 112.686 973.07 112.686C971.657 112.686 970.577 112.081 969.83 110.871C969.084 109.661 968.71 107.913 968.71 105.626C968.71 103.352 969.084 101.61 969.83 100.4C970.577 99.1906 971.657 98.5856 973.07 98.5856ZM970.13 105.626C970.13 107.248 970.277 108.518 970.57 109.435L975.01 100.6C974.543 99.975 973.897 99.6626 973.07 99.6626C972.15 99.6626 971.43 100.155 970.91 101.138C970.39 102.109 970.13 103.605 970.13 105.626ZM973.07 111.589C974.003 111.589 974.73 111.104 975.25 110.133C975.77 109.149 976.03 107.647 976.03 105.626C976.03 103.911 975.863 102.581 975.53 101.637L971.09 110.552C971.57 111.243 972.23 111.589 973.07 111.589Z" fill="url(#paint60_linear_175_198)"/>
<path d="M974.27 134.222H977.21V135.279H969.59V134.222H972.99V123.014L969.75 124.948L969.19 124.051L973.19 121.578H974.27V134.222Z" fill="url(#paint61_linear_175_198)"/>
<path d="M973.07 144.171C974.497 144.171 975.577 144.776 976.31 145.986C977.057 147.183 977.43 148.924 977.43 151.211C977.43 153.498 977.057 155.247 976.31 156.457C975.577 157.666 974.497 158.271 973.07 158.271C971.657 158.271 970.577 157.666 969.83 156.457C969.084 155.247 968.71 153.498 968.71 151.211C968.71 148.938 969.084 147.196 969.83 145.986C970.577 144.776 971.657 144.171 973.07 144.171ZM970.13 151.211C970.13 152.833 970.277 154.103 970.57 155.021L975.01 146.186C974.543 145.561 973.897 145.248 973.07 145.248C972.15 145.248 971.43 145.74 970.91 146.724C970.39 147.695 970.13 149.19 970.13 151.211ZM973.07 157.174C974.003 157.174 974.73 156.689 975.25 155.719C975.77 154.735 976.03 153.232 976.03 151.211C976.03 149.496 975.863 148.167 975.53 147.223L971.09 156.137C971.57 156.829 972.23 157.174 973.07 157.174Z" fill="url(#paint62_linear_175_198)"/>
<path d="M973.07 166.964C974.497 166.964 975.577 167.569 976.31 168.779C977.057 169.976 977.43 171.717 977.43 174.004C977.43 176.291 977.057 178.039 976.31 179.249C975.577 180.459 974.497 181.064 973.07 181.064C971.657 181.064 970.577 180.459 969.83 179.249C969.084 178.039 968.71 176.291 968.71 174.004C968.71 171.731 969.084 169.989 969.83 168.779C970.577 167.569 971.657 166.964 973.07 166.964ZM970.13 174.004C970.13 175.626 970.277 176.896 970.57 177.813L975.01 168.978C974.543 168.353 973.897 168.041 973.07 168.041C972.15 168.041 971.43 168.533 970.91 169.517C970.39 170.487 970.13 171.983 970.13 174.004ZM973.07 179.967C974.003 179.967 974.73 179.482 975.25 178.511C975.77 177.528 976.03 176.025 976.03 174.004C976.03 172.289 975.863 170.959 975.53 170.015L971.09 178.93C971.57 179.622 972.23 179.967 973.07 179.967Z" fill="url(#paint63_linear_175_198)"/>
<path d="M974.27 202.601H977.21V203.658H969.59V202.601H972.99V191.392L969.75 193.327L969.19 192.429L973.19 189.956H974.27V202.601Z" fill="url(#paint64_linear_175_198)"/>
<path d="M973.07 212.55C974.497 212.55 975.577 213.155 976.31 214.365C977.057 215.561 977.43 217.303 977.43 219.59C977.43 221.877 977.057 223.625 976.31 224.835C975.577 226.045 974.497 226.65 973.07 226.65C971.657 226.65 970.577 226.045 969.83 224.835C969.084 223.625 968.71 221.877 968.71 219.59C968.71 217.316 969.084 215.574 969.83 214.365C970.577 213.155 971.657 212.55 973.07 212.55ZM970.13 219.59C970.13 221.212 970.277 222.482 970.57 223.399L975.01 214.564C974.543 213.939 973.897 213.627 973.07 213.627C972.15 213.627 971.43 214.119 970.91 215.102C970.39 216.073 970.13 217.569 970.13 219.59ZM973.07 225.553C974.003 225.553 974.73 225.068 975.25 224.097C975.77 223.113 976.03 221.611 976.03 219.59C976.03 217.875 975.863 216.545 975.53 215.601L971.09 224.516C971.57 225.207 972.23 225.553 973.07 225.553Z" fill="url(#paint65_linear_175_198)"/>
<path d="M974.27 248.186H977.21V249.243H969.59V248.186H972.99V236.978L969.75 238.912L969.19 238.015L973.19 235.542H974.27V248.186Z" fill="url(#paint66_linear_175_198)"/>
<path d="M973.07 258.135C974.497 258.135 975.577 258.74 976.31 259.95C977.057 261.147 977.43 262.888 977.43 265.175C977.43 267.462 977.057 269.211 976.31 270.421C975.577 271.63 974.497 272.235 973.07 272.235C971.657 272.235 970.577 271.63 969.83 270.421C969.084 269.211 968.71 267.462 968.71 265.175C968.71 262.902 969.084 261.16 969.83 259.95C970.577 258.74 971.657 258.135 973.07 258.135ZM970.13 265.175C970.13 266.797 970.277 268.067 970.57 268.985L975.01 260.15C974.543 259.525 973.897 259.212 973.07 259.212C972.15 259.212 971.43 259.704 970.91 260.688C970.39 261.659 970.13 263.154 970.13 265.175ZM973.07 271.139C974.003 271.139 974.73 270.653 975.25 269.683C975.77 268.699 976.03 267.196 976.03 265.175C976.03 263.46 975.863 262.131 975.53 261.187L971.09 270.101C971.57 270.793 972.23 271.139 973.07 271.139Z" fill="url(#paint67_linear_175_198)"/>
<path d="M973.07 280.928C974.497 280.928 975.577 281.533 976.31 282.743C977.057 283.94 977.43 285.681 977.43 287.968C977.43 290.255 977.057 292.003 976.31 293.213C975.577 294.423 974.497 295.028 973.07 295.028C971.657 295.028 970.577 294.423 969.83 293.213C969.084 292.003 968.71 290.255 968.71 287.968C968.71 285.695 969.084 283.953 969.83 282.743C970.577 281.533 971.657 280.928 973.07 280.928ZM970.13 287.968C970.13 289.59 970.277 290.86 970.57 291.777L975.01 282.942C974.543 282.317 973.897 282.005 973.07 282.005C972.15 282.005 971.43 282.497 970.91 283.481C970.39 284.451 970.13 285.947 970.13 287.968ZM973.07 293.931C974.003 293.931 974.73 293.446 975.25 292.475C975.77 291.492 976.03 289.989 976.03 287.968C976.03 286.253 975.863 284.923 975.53 283.979L971.09 292.894C971.57 293.586 972.23 293.931 973.07 293.931Z" fill="url(#paint68_linear_175_198)"/>
<path d="M974.27 316.565H977.21V317.622H969.59V316.565H972.99V305.356L969.75 307.291L969.19 306.393L973.19 303.92H974.27V316.565Z" fill="url(#paint69_linear_175_198)"/>
<path d="M973.07 326.514C974.497 326.514 975.577 327.119 976.31 328.329C977.057 329.525 977.43 331.267 977.43 333.554C977.43 335.841 977.057 337.589 976.31 338.799C975.577 340.009 974.497 340.614 973.07 340.614C971.657 340.614 970.577 340.009 969.83 338.799C969.084 337.589 968.71 335.841 968.71 333.554C968.71 331.28 969.084 329.538 969.83 328.329C970.577 327.119 971.657 326.514 973.07 326.514ZM970.13 333.554C970.13 335.176 970.277 336.446 970.57 337.363L975.01 328.528C974.543 327.903 973.897 327.591 973.07 327.591C972.15 327.591 971.43 328.083 970.91 329.066C970.39 330.037 970.13 331.533 970.13 333.554ZM973.07 339.517C974.003 339.517 974.73 339.032 975.25 338.061C975.77 337.077 976.03 335.575 976.03 333.554C976.03 331.839 975.863 330.509 975.53 329.565L971.09 338.48C971.57 339.171 972.23 339.517 973.07 339.517Z" fill="url(#paint70_linear_175_198)"/>
<path d="M974.27 362.15H977.21V363.207H969.59V362.15H972.99V350.942L969.75 352.876L969.19 351.979L973.19 349.506H974.27V362.15Z" fill="url(#paint71_linear_175_198)"/>
<path d="M974.27 384.943H977.21V386H969.59V384.943H972.99V373.735L969.75 375.669L969.19 374.772L973.19 372.299H974.27V384.943Z" fill="url(#paint72_linear_175_198)"/>
<path d="M917.36 121.378C918.786 121.378 919.866 121.983 920.599 123.193C921.346 124.39 921.719 126.132 921.719 128.419C921.719 130.705 921.346 132.454 920.599 133.664C919.866 134.874 918.786 135.479 917.36 135.479C915.946 135.479 914.867 134.874 914.12 133.664C913.373 132.454 913 130.705 913 128.419C913 126.145 913.373 124.403 914.12 123.193C914.867 121.983 915.946 121.378 917.36 121.378ZM914.42 128.419C914.42 130.041 914.567 131.31 914.86 132.228L919.3 123.393C918.833 122.768 918.186 122.455 917.36 122.455C916.44 122.455 915.72 122.947 915.2 123.931C914.68 124.902 914.42 126.398 914.42 128.419ZM917.36 134.382C918.293 134.382 919.02 133.896 919.54 132.926C920.06 131.942 920.319 130.44 920.319 128.419C920.319 126.703 920.153 125.374 919.82 124.43L915.38 133.345C915.86 134.036 916.52 134.382 917.36 134.382Z" fill="url(#paint73_linear_175_198)"/>
<path d="M917.36 144.171C918.786 144.171 919.866 144.776 920.599 145.986C921.346 147.183 921.719 148.924 921.719 151.211C921.719 153.498 921.346 155.247 920.599 156.457C919.866 157.666 918.786 158.271 917.36 158.271C915.946 158.271 914.867 157.666 914.12 156.457C913.373 155.247 913 153.498 913 151.211C913 148.938 913.373 147.196 914.12 145.986C914.867 144.776 915.946 144.171 917.36 144.171ZM914.42 151.211C914.42 152.833 914.567 154.103 914.86 155.021L919.3 146.186C918.833 145.561 918.186 145.248 917.36 145.248C916.44 145.248 915.72 145.74 915.2 146.724C914.68 147.695 914.42 149.19 914.42 151.211ZM917.36 157.174C918.293 157.174 919.02 156.689 919.54 155.719C920.06 154.735 920.319 153.232 920.319 151.211C920.319 149.496 920.153 148.167 919.82 147.223L915.38 156.137C915.86 156.829 916.52 157.174 917.36 157.174Z" fill="url(#paint74_linear_175_198)"/>
<path d="M918.56 179.808H921.499V180.865H913.88V179.808H917.28V168.599L914.04 170.534L913.48 169.636L917.48 167.163H918.56V179.808Z" fill="url(#paint75_linear_175_198)"/>
<path d="M917.36 189.757C918.786 189.757 919.866 190.362 920.599 191.572C921.346 192.768 921.719 194.51 921.719 196.797C921.719 199.084 921.346 200.832 920.599 202.042C919.866 203.252 918.786 203.857 917.36 203.857C915.946 203.857 914.867 203.252 914.12 202.042C913.373 200.832 913 199.084 913 196.797C913 194.523 913.373 192.782 914.12 191.572C914.867 190.362 915.946 189.757 917.36 189.757ZM914.42 196.797C914.42 198.419 914.567 199.689 914.86 200.606L919.3 191.771C918.833 191.146 918.186 190.834 917.36 190.834C916.44 190.834 915.72 191.326 915.2 192.31C914.68 193.28 914.42 194.776 914.42 196.797ZM917.36 202.76C918.293 202.76 919.02 202.275 919.54 201.304C920.06 200.32 920.319 198.818 920.319 196.797C920.319 195.082 920.153 193.752 919.82 192.808L915.38 201.723C915.86 202.414 916.52 202.76 917.36 202.76Z" fill="url(#paint76_linear_175_198)"/>
<path d="M918.56 225.393H921.499V226.45H913.88V225.393H917.28V214.185L914.04 216.12L913.48 215.222L917.48 212.749H918.56V225.393Z" fill="url(#paint77_linear_175_198)"/>
<path d="M918.56 248.186H921.499V249.243H913.88V248.186H917.28V236.978L914.04 238.912L913.48 238.015L917.48 235.542H918.56V248.186Z" fill="url(#paint78_linear_175_198)"/>
<path d="M955.7 88.6365H958.64V89.6936H951.02V88.6365H954.42V77.4282L951.18 79.3627L950.62 78.4653L954.62 75.9922H955.7V88.6365Z" fill="url(#paint79_linear_175_198)"/>
<path d="M954.5 98.5856C955.927 98.5856 957.006 99.1906 957.74 100.4C958.486 101.597 958.86 103.339 958.86 105.626C958.86 107.913 958.486 109.661 957.74 110.871C957.006 112.081 955.927 112.686 954.5 112.686C953.087 112.686 952.007 112.081 951.26 110.871C950.514 109.661 950.14 107.913 950.14 105.626C950.14 103.352 950.514 101.61 951.26 100.4C952.007 99.1906 953.087 98.5856 954.5 98.5856ZM951.56 105.626C951.56 107.248 951.707 108.518 952 109.435L956.44 100.6C955.973 99.975 955.327 99.6626 954.5 99.6626C953.58 99.6626 952.86 100.155 952.34 101.138C951.82 102.109 951.56 103.605 951.56 105.626ZM954.5 111.589C955.433 111.589 956.16 111.104 956.68 110.133C957.2 109.149 957.46 107.647 957.46 105.626C957.46 103.911 957.293 102.581 956.96 101.637L952.52 110.552C953 111.243 953.66 111.589 954.5 111.589Z" fill="url(#paint80_linear_175_198)"/>
<path d="M955.7 134.222H958.64V135.279H951.02V134.222H954.42V123.014L951.18 124.948L950.62 124.051L954.62 121.578H955.7V134.222Z" fill="url(#paint81_linear_175_198)"/>
<path d="M955.7 157.015H958.64V158.072H951.02V157.015H954.42V145.807L951.18 147.741L950.62 146.844L954.62 144.371H955.7V157.015Z" fill="url(#paint82_linear_175_198)"/>
<path d="M954.5 166.964C955.927 166.964 957.006 167.569 957.74 168.779C958.486 169.976 958.86 171.717 958.86 174.004C958.86 176.291 958.486 178.039 957.74 179.249C957.006 180.459 955.927 181.064 954.5 181.064C953.087 181.064 952.007 180.459 951.26 179.249C950.514 178.039 950.14 176.291 950.14 174.004C950.14 171.731 950.514 169.989 951.26 168.779C952.007 167.569 953.087 166.964 954.5 166.964ZM951.56 174.004C951.56 175.626 951.707 176.896 952 177.813L956.44 168.978C955.973 168.353 955.327 168.041 954.5 168.041C953.58 168.041 952.86 168.533 952.34 169.517C951.82 170.487 951.56 171.983 951.56 174.004ZM954.5 179.967C955.433 179.967 956.16 179.482 956.68 178.511C957.2 177.528 957.46 176.025 957.46 174.004C957.46 172.289 957.293 170.959 956.96 170.015L952.52 178.93C953 179.622 953.66 179.967 954.5 179.967Z" fill="url(#paint83_linear_175_198)"/>
<path d="M955.7 202.601H958.64V203.658H951.02V202.601H954.42V191.392L951.18 193.327L950.62 192.429L954.62 189.956H955.7V202.601Z" fill="url(#paint84_linear_175_198)"/>
<path d="M955.7 225.393H958.64V226.45H951.02V225.393H954.42V214.185L951.18 216.12L950.62 215.222L954.62 212.749H955.7V225.393Z" fill="url(#paint85_linear_175_198)"/>
<path d="M954.5 235.342C955.927 235.342 957.006 235.947 957.74 237.157C958.486 238.354 958.86 240.096 958.86 242.383C958.86 244.669 958.486 246.418 957.74 247.628C957.006 248.838 955.927 249.443 954.5 249.443C953.087 249.443 952.007 248.838 951.26 247.628C950.514 246.418 950.14 244.669 950.14 242.383C950.14 240.109 950.514 238.367 951.26 237.157C952.007 235.947 953.087 235.342 954.5 235.342ZM951.56 242.383C951.56 244.005 951.707 245.274 952 246.192L956.44 237.357C955.973 236.732 955.327 236.419 954.5 236.419C953.58 236.419 952.86 236.911 952.34 237.895C951.82 238.866 951.56 240.362 951.56 242.383ZM954.5 248.346C955.433 248.346 956.16 247.86 956.68 246.89C957.2 245.906 957.46 244.404 957.46 242.383C957.46 240.667 957.293 239.338 956.96 238.394L952.52 247.309C953 248 953.66 248.346 954.5 248.346Z" fill="url(#paint86_linear_175_198)"/>
<path d="M955.7 270.979H958.64V272.036H951.02V270.979H954.42V259.771L951.18 261.705L950.62 260.808L954.62 258.335H955.7V270.979Z" fill="url(#paint87_linear_175_198)"/>
<path d="M954.5 280.928C955.927 280.928 957.006 281.533 957.74 282.743C958.486 283.94 958.86 285.681 958.86 287.968C958.86 290.255 958.486 292.003 957.74 293.213C957.006 294.423 955.927 295.028 954.5 295.028C953.087 295.028 952.007 294.423 951.26 293.213C950.514 292.003 950.14 290.255 950.14 287.968C950.14 285.695 950.514 283.953 951.26 282.743C952.007 281.533 953.087 280.928 954.5 280.928ZM951.56 287.968C951.56 289.59 951.707 290.86 952 291.777L956.44 282.942C955.973 282.317 955.327 282.005 954.5 282.005C953.58 282.005 952.86 282.497 952.34 283.481C951.82 284.451 951.56 285.947 951.56 287.968ZM954.5 293.931C955.433 293.931 956.16 293.446 956.68 292.475C957.2 291.492 957.46 289.989 957.46 287.968C957.46 286.253 957.293 284.923 956.96 283.979L952.52 292.894C953 293.586 953.66 293.931 954.5 293.931Z" fill="url(#paint88_linear_175_198)"/>
<path d="M991.64 75.7928C993.067 75.7928 994.147 76.3978 994.88 77.6077C995.627 78.8043 996 80.5461 996 82.8329C996 85.1198 995.627 86.8682 994.88 88.0781C994.147 89.288 993.067 89.893 991.64 89.893C990.227 89.893 989.147 89.288 988.401 88.0781C987.654 86.8682 987.281 85.1198 987.281 82.8329C987.281 80.5593 987.654 78.8176 988.401 77.6077C989.147 76.3978 990.227 75.7928 991.64 75.7928ZM988.7 82.8329C988.7 84.455 988.847 85.7248 989.14 86.6422L993.58 77.8071C993.114 77.1822 992.467 76.8698 991.64 76.8698C990.72 76.8698 990 77.3617 989.48 78.3456C988.96 79.3162 988.7 80.812 988.7 82.8329ZM991.64 88.7961C992.574 88.7961 993.3 88.3108 993.82 87.3402C994.34 86.3563 994.6 84.8539 994.6 82.8329C994.6 81.1178 994.433 79.7882 994.1 78.8442L989.66 87.759C990.14 88.4504 990.8 88.7961 991.64 88.7961Z" fill="url(#paint89_linear_175_198)"/>
<path d="M992.84 111.429H995.78V112.486H988.161V111.429H991.56V100.221L988.321 102.156L987.761 101.258L991.76 98.785H992.84V111.429Z" fill="url(#paint90_linear_175_198)"/>
<path d="M992.84 134.222H995.78V135.279H988.161V134.222H991.56V123.014L988.321 124.948L987.761 124.051L991.76 121.578H992.84V134.222Z" fill="url(#paint91_linear_175_198)"/>
<path d="M991.64 144.171C993.067 144.171 994.147 144.776 994.88 145.986C995.627 147.183 996 148.924 996 151.211C996 153.498 995.627 155.247 994.88 156.457C994.147 157.666 993.067 158.271 991.64 158.271C990.227 158.271 989.147 157.666 988.401 156.457C987.654 155.247 987.281 153.498 987.281 151.211C987.281 148.938 987.654 147.196 988.401 145.986C989.147 144.776 990.227 144.171 991.64 144.171ZM988.7 151.211C988.7 152.833 988.847 154.103 989.14 155.021L993.58 146.186C993.114 145.561 992.467 145.248 991.64 145.248C990.72 145.248 990 145.74 989.48 146.724C988.96 147.695 988.7 149.19 988.7 151.211ZM991.64 157.174C992.574 157.174 993.3 156.689 993.82 155.719C994.34 154.735 994.6 153.232 994.6 151.211C994.6 149.496 994.433 148.167 994.1 147.223L989.66 156.137C990.14 156.829 990.8 157.174 991.64 157.174Z" fill="url(#paint92_linear_175_198)"/>
<path d="M991.64 166.964C993.067 166.964 994.147 167.569 994.88 168.779C995.627 169.976 996 171.717 996 174.004C996 176.291 995.627 178.039 994.88 179.249C994.147 180.459 993.067 181.064 991.64 181.064C990.227 181.064 989.147 180.459 988.401 179.249C987.654 178.039 987.281 176.291 987.281 174.004C987.281 171.731 987.654 169.989 988.401 168.779C989.147 167.569 990.227 166.964 991.64 166.964ZM988.7 174.004C988.7 175.626 988.847 176.896 989.14 177.813L993.58 168.978C993.114 168.353 992.467 168.041 991.64 168.041C990.72 168.041 990 168.533 989.48 169.517C988.96 170.487 988.7 171.983 988.7 174.004ZM991.64 179.967C992.574 179.967 993.3 179.482 993.82 178.511C994.34 177.528 994.6 176.025 994.6 174.004C994.6 172.289 994.433 170.959 994.1 170.015L989.66 178.93C990.14 179.622 990.8 179.967 991.64 179.967Z" fill="url(#paint93_linear_175_198)"/>
</g>
<defs>
<filter id="filter0_f_175_198" x="-542.19" y="-633.19" width="2560" height="1600" filterUnits="userSpaceOnUse" color-interpolation-filters="sRGB">
<feFlood flood-opacity="0" result="BackgroundImageFix"/>
<feBlend mode="normal" in="SourceGraphic" in2="BackgroundImageFix" result="shape"/>
<feGaussianBlur stdDeviation="200.095" result="effect1_foregroundBlur_175_198"/>
</filter>
<linearGradient id="paint0_linear_175_198" x1="68.5" y1="353" x2="68.5" y2="664.381" gradientUnits="userSpaceOnUse">
<stop stop-color="#F7DD43"/>
<stop offset="1" stop-color="#F7DD43" stop-opacity="0"/>
</linearGradient>
<linearGradient id="paint1_linear_175_198" x1="68.5" y1="353" x2="68.5" y2="664.381" gradientUnits="userSpaceOnUse">
<stop stop-color="#F7DD43"/>
<stop offset="1" stop-color="#F7DD43" stop-opacity="0"/>
</linearGradient>
<linearGradient id="paint2_linear_175_198" x1="68.5" y1="353" x2="68.5" y2="664.381" gradientUnits="userSpaceOnUse">
<stop stop-color="#F7DD43"/>
<stop offset="1" stop-color="#F7DD43" stop-opacity="0"/>
</linearGradient>
<linearGradient id="paint3_linear_175_198" x1="68.5" y1="353" x2="68.5" y2="664.381" gradientUnits="userSpaceOnUse">
<stop stop-color="#F7DD43"/>
<stop offset="1" stop-color="#F7DD43" stop-opacity="0"/>
</linearGradient>
<linearGradient id="paint4_linear_175_198" x1="68.5" y1="353" x2="68.5" y2="664.381" gradientUnits="userSpaceOnUse">
<stop stop-color="#F7DD43"/>
<stop offset="1" stop-color="#F7DD43" stop-opacity="0"/>
</linearGradient>
<linearGradient id="paint5_linear_175_198" x1="68.5" y1="353" x2="68.5" y2="664.381" gradientUnits="userSpaceOnUse">
<stop stop-color="#F7DD43"/>
<stop offset="1" stop-color="#F7DD43" stop-opacity="0"/>
</linearGradient>
<linearGradient id="paint6_linear_175_198" x1="68.5" y1="353" x2="68.5" y2="664.381" gradientUnits="userSpaceOnUse">
<stop stop-color="#F7DD43"/>
<stop offset="1" stop-color="#F7DD43" stop-opacity="0"/>
</linearGradient>
<linearGradient id="paint7_linear_175_198" x1="68.5" y1="353" x2="68.5" y2="664.381" gradientUnits="userSpaceOnUse">
<stop stop-color="#F7DD43"/>
<stop offset="1" stop-color="#F7DD43" stop-opacity="0"/>
</linearGradient>
<linearGradient id="paint8_linear_175_198" x1="68.5" y1="353" x2="68.5" y2="664.381" gradientUnits="userSpaceOnUse">
<stop stop-color="#F7DD43"/>
<stop offset="1" stop-color="#F7DD43" stop-opacity="0"/>
</linearGradient>
<linearGradient id="paint9_linear_175_198" x1="68.5" y1="353" x2="68.5" y2="664.381" gradientUnits="userSpaceOnUse">
<stop stop-color="#F7DD43"/>
<stop offset="1" stop-color="#F7DD43" stop-opacity="0"/>
</linearGradient>
<linearGradient id="paint10_linear_175_198" x1="68.5" y1="353" x2="68.5" y2="664.381" gradientUnits="userSpaceOnUse">
<stop stop-color="#F7DD43"/>
<stop offset="1" stop-color="#F7DD43" stop-opacity="0"/>
</linearGradient>
<linearGradient id="paint11_linear_175_198" x1="68.5" y1="353" x2="68.5" y2="664.381" gradientUnits="userSpaceOnUse">
<stop stop-color="#F7DD43"/>
<stop offset="1" stop-color="#F7DD43" stop-opacity="0"/>
</linearGradient>
<linearGradient id="paint12_linear_175_198" x1="68.5" y1="353" x2="68.5" y2="664.381" gradientUnits="userSpaceOnUse">
<stop stop-color="#F7DD43"/>
<stop offset="1" stop-color="#F7DD43" stop-opacity="0"/>
</linearGradient>
<linearGradient id="paint13_linear_175_198" x1="68.5" y1="353" x2="68.5" y2="664.381" gradientUnits="userSpaceOnUse">
<stop stop-color="#F7DD43"/>
<stop offset="1" stop-color="#F7DD43" stop-opacity="0"/>
</linearGradient>
<linearGradient id="paint14_linear_175_198" x1="68.5" y1="353" x2="68.5" y2="664.381" gradientUnits="userSpaceOnUse">
<stop stop-color="#F7DD43"/>
<stop offset="1" stop-color="#F7DD43" stop-opacity="0"/>
</linearGradient>
<linearGradient id="paint15_linear_175_198" x1="68.5" y1="353" x2="68.5" y2="664.381" gradientUnits="userSpaceOnUse">
<stop stop-color="#F7DD43"/>
<stop offset="1" stop-color="#F7DD43" stop-opacity="0"/>
</linearGradient>
<linearGradient id="paint16_linear_175_198" x1="68.5" y1="353" x2="68.5" y2="664.381" gradientUnits="userSpaceOnUse">
<stop stop-color="#F7DD43"/>
<stop offset="1" stop-color="#F7DD43" stop-opacity="0"/>
</linearGradient>
<linearGradient id="paint17_linear_175_198" x1="68.5" y1="353" x2="68.5" y2="664.381" gradientUnits="userSpaceOnUse">
<stop stop-color="#F7DD43"/>
<stop offset="1" stop-color="#F7DD43" stop-opacity="0"/>
</linearGradient>
<linearGradient id="paint18_linear_175_198" x1="68.5" y1="353" x2="68.5" y2="664.381" gradientUnits="userSpaceOnUse">
<stop stop-color="#F7DD43"/>
<stop offset="1" stop-color="#F7DD43" stop-opacity="0"/>
</linearGradient>
<linearGradient id="paint19_linear_175_198" x1="68.5" y1="353" x2="68.5" y2="664.381" gradientUnits="userSpaceOnUse">
<stop stop-color="#F7DD43"/>
<stop offset="1" stop-color="#F7DD43" stop-opacity="0"/>
</linearGradient>
<linearGradient id="paint20_linear_175_198" x1="68.5" y1="353" x2="68.5" y2="664.381" gradientUnits="userSpaceOnUse">
<stop stop-color="#F7DD43"/>
<stop offset="1" stop-color="#F7DD43" stop-opacity="0"/>
</linearGradient>
<linearGradient id="paint21_linear_175_198" x1="68.5" y1="353" x2="68.5" y2="664.381" gradientUnits="userSpaceOnUse">
<stop stop-color="#F7DD43"/>
<stop offset="1" stop-color="#F7DD43" stop-opacity="0"/>
</linearGradient>
<linearGradient id="paint22_linear_175_198" x1="68.5" y1="353" x2="68.5" y2="664.381" gradientUnits="userSpaceOnUse">
<stop stop-color="#F7DD43"/>
<stop offset="1" stop-color="#F7DD43" stop-opacity="0"/>
</linearGradient>
<linearGradient id="paint23_linear_175_198" x1="68.5" y1="353" x2="68.5" y2="664.381" gradientUnits="userSpaceOnUse">
<stop stop-color="#F7DD43"/>
<stop offset="1" stop-color="#F7DD43" stop-opacity="0"/>
</linearGradient>
<linearGradient id="paint24_linear_175_198" x1="68.5" y1="353" x2="68.5" y2="664.381" gradientUnits="userSpaceOnUse">
<stop stop-color="#F7DD43"/>
<stop offset="1" stop-color="#F7DD43" stop-opacity="0"/>
</linearGradient>
<linearGradient id="paint25_linear_175_198" x1="68.5" y1="353" x2="68.5" y2="664.381" gradientUnits="userSpaceOnUse">
<stop stop-color="#F7DD43"/>
<stop offset="1" stop-color="#F7DD43" stop-opacity="0"/>
</linearGradient>
<linearGradient id="paint26_linear_175_198" x1="68.5" y1="353" x2="68.5" y2="664.381" gradientUnits="userSpaceOnUse">
<stop stop-color="#F7DD43"/>
<stop offset="1" stop-color="#F7DD43" stop-opacity="0"/>
</linearGradient>
<linearGradient id="paint27_linear_175_198" x1="68.5" y1="353" x2="68.5" y2="664.381" gradientUnits="userSpaceOnUse">
<stop stop-color="#F7DD43"/>
<stop offset="1" stop-color="#F7DD43" stop-opacity="0"/>
</linearGradient>
<linearGradient id="paint28_linear_175_198" x1="68.5" y1="353" x2="68.5" y2="664.381" gradientUnits="userSpaceOnUse">
<stop stop-color="#F7DD43"/>
<stop offset="1" stop-color="#F7DD43" stop-opacity="0"/>
</linearGradient>
<linearGradient id="paint29_linear_175_198" x1="68.5" y1="353" x2="68.5" y2="664.381" gradientUnits="userSpaceOnUse">
<stop stop-color="#F7DD43"/>
<stop offset="1" stop-color="#F7DD43" stop-opacity="0"/>
</linearGradient>
<linearGradient id="paint30_linear_175_198" x1="68.5" y1="353" x2="68.5" y2="664.381" gradientUnits="userSpaceOnUse">
<stop stop-color="#F7DD43"/>
<stop offset="1" stop-color="#F7DD43" stop-opacity="0"/>
</linearGradient>
<linearGradient id="paint31_linear_175_198" x1="68.5" y1="353" x2="68.5" y2="664.381" gradientUnits="userSpaceOnUse">
<stop stop-color="#F7DD43"/>
<stop offset="1" stop-color="#F7DD43" stop-opacity="0"/>
</linearGradient>
<linearGradient id="paint32_linear_175_198" x1="68.5" y1="353" x2="68.5" y2="664.381" gradientUnits="userSpaceOnUse">
<stop stop-color="#F7DD43"/>
<stop offset="1" stop-color="#F7DD43" stop-opacity="0"/>
</linearGradient>
<linearGradient id="paint33_linear_175_198" x1="68.5" y1="353" x2="68.5" y2="664.381" gradientUnits="userSpaceOnUse">
<stop stop-color="#F7DD43"/>
<stop offset="1" stop-color="#F7DD43" stop-opacity="0"/>
</linearGradient>
<linearGradient id="paint34_linear_175_198" x1="68.5" y1="353" x2="68.5" y2="664.381" gradientUnits="userSpaceOnUse">
<stop stop-color="#F7DD43"/>
<stop offset="1" stop-color="#F7DD43" stop-opacity="0"/>
</linearGradient>
<linearGradient id="paint35_linear_175_198" x1="68.5" y1="353" x2="68.5" y2="664.381" gradientUnits="userSpaceOnUse">
<stop stop-color="#F7DD43"/>
<stop offset="1" stop-color="#F7DD43" stop-opacity="0"/>
</linearGradient>
<linearGradient id="paint36_linear_175_198" x1="68.5" y1="353" x2="68.5" y2="664.381" gradientUnits="userSpaceOnUse">
<stop stop-color="#F7DD43"/>
<stop offset="1" stop-color="#F7DD43" stop-opacity="0"/>
</linearGradient>
<linearGradient id="paint37_linear_175_198" x1="68.5" y1="353" x2="68.5" y2="664.381" gradientUnits="userSpaceOnUse">
<stop stop-color="#F7DD43"/>
<stop offset="1" stop-color="#F7DD43" stop-opacity="0"/>
</linearGradient>
<linearGradient id="paint38_linear_175_198" x1="68.5" y1="353" x2="68.5" y2="664.381" gradientUnits="userSpaceOnUse">
<stop stop-color="#F7DD43"/>
<stop offset="1" stop-color="#F7DD43" stop-opacity="0"/>
</linearGradient>
<linearGradient id="paint39_linear_175_198" x1="68.5" y1="353" x2="68.5" y2="664.381" gradientUnits="userSpaceOnUse">
<stop stop-color="#F7DD43"/>
<stop offset="1" stop-color="#F7DD43" stop-opacity="0"/>
</linearGradient>
<linearGradient id="paint40_linear_175_198" x1="68.5" y1="353" x2="68.5" y2="664.381" gradientUnits="userSpaceOnUse">
<stop stop-color="#F7DD43"/>
<stop offset="1" stop-color="#F7DD43" stop-opacity="0"/>
</linearGradient>
<linearGradient id="paint41_linear_175_198" x1="68.5" y1="353" x2="68.5" y2="664.381" gradientUnits="userSpaceOnUse">
<stop stop-color="#F7DD43"/>
<stop offset="1" stop-color="#F7DD43" stop-opacity="0"/>
</linearGradient>
<linearGradient id="paint42_linear_175_198" x1="68.5" y1="353" x2="68.5" y2="664.381" gradientUnits="userSpaceOnUse">
<stop stop-color="#F7DD43"/>
<stop offset="1" stop-color="#F7DD43" stop-opacity="0"/>
</linearGradient>
<linearGradient id="paint43_linear_175_198" x1="68.5" y1="353" x2="68.5" y2="664.381" gradientUnits="userSpaceOnUse">
<stop stop-color="#F7DD43"/>
<stop offset="1" stop-color="#F7DD43" stop-opacity="0"/>
</linearGradient>
<linearGradient id="paint44_linear_175_198" x1="68.5" y1="353" x2="68.5" y2="664.381" gradientUnits="userSpaceOnUse">
<stop stop-color="#F7DD43"/>
<stop offset="1" stop-color="#F7DD43" stop-opacity="0"/>
</linearGradient>
<linearGradient id="paint45_linear_175_198" x1="68.5" y1="353" x2="68.5" y2="664.381" gradientUnits="userSpaceOnUse">
<stop stop-color="#F7DD43"/>
<stop offset="1" stop-color="#F7DD43" stop-opacity="0"/>
</linearGradient>
<linearGradient id="paint46_linear_175_198" x1="68.5" y1="353" x2="68.5" y2="664.381" gradientUnits="userSpaceOnUse">
<stop stop-color="#F7DD43"/>
<stop offset="1" stop-color="#F7DD43" stop-opacity="0"/>
</linearGradient>
<linearGradient id="paint47_linear_175_198" x1="954.5" y1="53" x2="954.5" y2="351.818" gradientUnits="userSpaceOnUse">
<stop stop-color="#F7DD43"/>
<stop offset="1" stop-color="#F7DD43" stop-opacity="0"/>
</linearGradient>
<linearGradient id="paint48_linear_175_198" x1="954.5" y1="53" x2="954.5" y2="351.818" gradientUnits="userSpaceOnUse">
<stop stop-color="#F7DD43"/>
<stop offset="1" stop-color="#F7DD43" stop-opacity="0"/>
</linearGradient>
<linearGradient id="paint49_linear_175_198" x1="954.5" y1="53" x2="954.5" y2="351.818" gradientUnits="userSpaceOnUse">
<stop stop-color="#F7DD43"/>
<stop offset="1" stop-color="#F7DD43" stop-opacity="0"/>
</linearGradient>
<linearGradient id="paint50_linear_175_198" x1="954.5" y1="53" x2="954.5" y2="351.818" gradientUnits="userSpaceOnUse">
<stop stop-color="#F7DD43"/>
<stop offset="1" stop-color="#F7DD43" stop-opacity="0"/>
</linearGradient>
<linearGradient id="paint51_linear_175_198" x1="954.5" y1="53" x2="954.5" y2="351.818" gradientUnits="userSpaceOnUse">
<stop stop-color="#F7DD43"/>
<stop offset="1" stop-color="#F7DD43" stop-opacity="0"/>
</linearGradient>
<linearGradient id="paint52_linear_175_198" x1="954.5" y1="53" x2="954.5" y2="351.818" gradientUnits="userSpaceOnUse">
<stop stop-color="#F7DD43"/>
<stop offset="1" stop-color="#F7DD43" stop-opacity="0"/>
</linearGradient>
<linearGradient id="paint53_linear_175_198" x1="954.5" y1="53" x2="954.5" y2="351.818" gradientUnits="userSpaceOnUse">
<stop stop-color="#F7DD43"/>
<stop offset="1" stop-color="#F7DD43" stop-opacity="0"/>
</linearGradient>
<linearGradient id="paint54_linear_175_198" x1="954.5" y1="53" x2="954.5" y2="351.818" gradientUnits="userSpaceOnUse">
<stop stop-color="#F7DD43"/>
<stop offset="1" stop-color="#F7DD43" stop-opacity="0"/>
</linearGradient>
<linearGradient id="paint55_linear_175_198" x1="954.5" y1="53" x2="954.5" y2="351.818" gradientUnits="userSpaceOnUse">
<stop stop-color="#F7DD43"/>
<stop offset="1" stop-color="#F7DD43" stop-opacity="0"/>
</linearGradient>
<linearGradient id="paint56_linear_175_198" x1="954.5" y1="53" x2="954.5" y2="351.818" gradientUnits="userSpaceOnUse">
<stop stop-color="#F7DD43"/>
<stop offset="1" stop-color="#F7DD43" stop-opacity="0"/>
</linearGradient>
<linearGradient id="paint57_linear_175_198" x1="954.5" y1="53" x2="954.5" y2="351.818" gradientUnits="userSpaceOnUse">
<stop stop-color="#F7DD43"/>
<stop offset="1" stop-color="#F7DD43" stop-opacity="0"/>
</linearGradient>
<linearGradient id="paint58_linear_175_198" x1="954.5" y1="53" x2="954.5" y2="351.818" gradientUnits="userSpaceOnUse">
<stop stop-color="#F7DD43"/>
<stop offset="1" stop-color="#F7DD43" stop-opacity="0"/>
</linearGradient>
<linearGradient id="paint59_linear_175_198" x1="954.5" y1="53" x2="954.5" y2="351.818" gradientUnits="userSpaceOnUse">
<stop stop-color="#F7DD43"/>
<stop offset="1" stop-color="#F7DD43" stop-opacity="0"/>
</linearGradient>
<linearGradient id="paint60_linear_175_198" x1="954.5" y1="53" x2="954.5" y2="351.818" gradientUnits="userSpaceOnUse">
<stop stop-color="#F7DD43"/>
<stop offset="1" stop-color="#F7DD43" stop-opacity="0"/>
</linearGradient>
<linearGradient id="paint61_linear_175_198" x1="954.5" y1="53" x2="954.5" y2="351.818" gradientUnits="userSpaceOnUse">
<stop stop-color="#F7DD43"/>
<stop offset="1" stop-color="#F7DD43" stop-opacity="0"/>
</linearGradient>
<linearGradient id="paint62_linear_175_198" x1="954.5" y1="53" x2="954.5" y2="351.818" gradientUnits="userSpaceOnUse">
<stop stop-color="#F7DD43"/>
<stop offset="1" stop-color="#F7DD43" stop-opacity="0"/>
</linearGradient>
<linearGradient id="paint63_linear_175_198" x1="954.5" y1="53" x2="954.5" y2="351.818" gradientUnits="userSpaceOnUse">
<stop stop-color="#F7DD43"/>
<stop offset="1" stop-color="#F7DD43" stop-opacity="0"/>
</linearGradient>
<linearGradient id="paint64_linear_175_198" x1="954.5" y1="53" x2="954.5" y2="351.818" gradientUnits="userSpaceOnUse">
<stop stop-color="#F7DD43"/>
<stop offset="1" stop-color="#F7DD43" stop-opacity="0"/>
</linearGradient>
<linearGradient id="paint65_linear_175_198" x1="954.5" y1="53" x2="954.5" y2="351.818" gradientUnits="userSpaceOnUse">
<stop stop-color="#F7DD43"/>
<stop offset="1" stop-color="#F7DD43" stop-opacity="0"/>
</linearGradient>
<linearGradient id="paint66_linear_175_198" x1="954.5" y1="53" x2="954.5" y2="351.818" gradientUnits="userSpaceOnUse">
<stop stop-color="#F7DD43"/>
<stop offset="1" stop-color="#F7DD43" stop-opacity="0"/>
</linearGradient>
<linearGradient id="paint67_linear_175_198" x1="954.5" y1="53" x2="954.5" y2="351.818" gradientUnits="userSpaceOnUse">
<stop stop-color="#F7DD43"/>
<stop offset="1" stop-color="#F7DD43" stop-opacity="0"/>
</linearGradient>
<linearGradient id="paint68_linear_175_198" x1="954.5" y1="53" x2="954.5" y2="351.818" gradientUnits="userSpaceOnUse">
<stop stop-color="#F7DD43"/>
<stop offset="1" stop-color="#F7DD43" stop-opacity="0"/>
</linearGradient>
<linearGradient id="paint69_linear_175_198" x1="954.5" y1="53" x2="954.5" y2="351.818" gradientUnits="userSpaceOnUse">
<stop stop-color="#F7DD43"/>
<stop offset="1" stop-color="#F7DD43" stop-opacity="0"/>
</linearGradient>
<linearGradient id="paint70_linear_175_198" x1="954.5" y1="53" x2="954.5" y2="351.818" gradientUnits="userSpaceOnUse">
<stop stop-color="#F7DD43"/>
<stop offset="1" stop-color="#F7DD43" stop-opacity="0"/>
</linearGradient>
<linearGradient id="paint71_linear_175_198" x1="954.5" y1="53" x2="954.5" y2="351.818" gradientUnits="userSpaceOnUse">
<stop stop-color="#F7DD43"/>
<stop offset="1" stop-color="#F7DD43" stop-opacity="0"/>
</linearGradient>
<linearGradient id="paint72_linear_175_198" x1="954.5" y1="53" x2="954.5" y2="351.818" gradientUnits="userSpaceOnUse">
<stop stop-color="#F7DD43"/>
<stop offset="1" stop-color="#F7DD43" stop-opacity="0"/>
</linearGradient>
<linearGradient id="paint73_linear_175_198" x1="954.5" y1="53" x2="954.5" y2="351.818" gradientUnits="userSpaceOnUse">
<stop stop-color="#F7DD43"/>
<stop offset="1" stop-color="#F7DD43" stop-opacity="0"/>
</linearGradient>
<linearGradient id="paint74_linear_175_198" x1="954.5" y1="53" x2="954.5" y2="351.818" gradientUnits="userSpaceOnUse">
<stop stop-color="#F7DD43"/>
<stop offset="1" stop-color="#F7DD43" stop-opacity="0"/>
</linearGradient>
<linearGradient id="paint75_linear_175_198" x1="954.5" y1="53" x2="954.5" y2="351.818" gradientUnits="userSpaceOnUse">
<stop stop-color="#F7DD43"/>
<stop offset="1" stop-color="#F7DD43" stop-opacity="0"/>
</linearGradient>
<linearGradient id="paint76_linear_175_198" x1="954.5" y1="53" x2="954.5" y2="351.818" gradientUnits="userSpaceOnUse">
<stop stop-color="#F7DD43"/>
<stop offset="1" stop-color="#F7DD43" stop-opacity="0"/>
</linearGradient>
<linearGradient id="paint77_linear_175_198" x1="954.5" y1="53" x2="954.5" y2="351.818" gradientUnits="userSpaceOnUse">
<stop stop-color="#F7DD43"/>
<stop offset="1" stop-color="#F7DD43" stop-opacity="0"/>
</linearGradient>
<linearGradient id="paint78_linear_175_198" x1="954.5" y1="53" x2="954.5" y2="351.818" gradientUnits="userSpaceOnUse">
<stop stop-color="#F7DD43"/>
<stop offset="1" stop-color="#F7DD43" stop-opacity="0"/>
</linearGradient>
<linearGradient id="paint79_linear_175_198" x1="954.5" y1="53" x2="954.5" y2="351.818" gradientUnits="userSpaceOnUse">
<stop stop-color="#F7DD43"/>
<stop offset="1" stop-color="#F7DD43" stop-opacity="0"/>
</linearGradient>
<linearGradient id="paint80_linear_175_198" x1="954.5" y1="53" x2="954.5" y2="351.818" gradientUnits="userSpaceOnUse">
<stop stop-color="#F7DD43"/>
<stop offset="1" stop-color="#F7DD43" stop-opacity="0"/>
</linearGradient>
<linearGradient id="paint81_linear_175_198" x1="954.5" y1="53" x2="954.5" y2="351.818" gradientUnits="userSpaceOnUse">
<stop stop-color="#F7DD43"/>
<stop offset="1" stop-color="#F7DD43" stop-opacity="0"/>
</linearGradient>
<linearGradient id="paint82_linear_175_198" x1="954.5" y1="53" x2="954.5" y2="351.818" gradientUnits="userSpaceOnUse">
<stop stop-color="#F7DD43"/>
<stop offset="1" stop-color="#F7DD43" stop-opacity="0"/>
</linearGradient>
<linearGradient id="paint83_linear_175_198" x1="954.5" y1="53" x2="954.5" y2="351.818" gradientUnits="userSpaceOnUse">
<stop stop-color="#F7DD43"/>
<stop offset="1" stop-color="#F7DD43" stop-opacity="0"/>
</linearGradient>
<linearGradient id="paint84_linear_175_198" x1="954.5" y1="53" x2="954.5" y2="351.818" gradientUnits="userSpaceOnUse">
<stop stop-color="#F7DD43"/>
<stop offset="1" stop-color="#F7DD43" stop-opacity="0"/>
</linearGradient>
<linearGradient id="paint85_linear_175_198" x1="954.5" y1="53" x2="954.5" y2="351.818" gradientUnits="userSpaceOnUse">
<stop stop-color="#F7DD43"/>
<stop offset="1" stop-color="#F7DD43" stop-opacity="0"/>
</linearGradient>
<linearGradient id="paint86_linear_175_198" x1="954.5" y1="53" x2="954.5" y2="351.818" gradientUnits="userSpaceOnUse">
<stop stop-color="#F7DD43"/>
<stop offset="1" stop-color="#F7DD43" stop-opacity="0"/>
</linearGradient>
<linearGradient id="paint87_linear_175_198" x1="954.5" y1="53" x2="954.5" y2="351.818" gradientUnits="userSpaceOnUse">
<stop stop-color="#F7DD43"/>
<stop offset="1" stop-color="#F7DD43" stop-opacity="0"/>
</linearGradient>
<linearGradient id="paint88_linear_175_198" x1="954.5" y1="53" x2="954.5" y2="351.818" gradientUnits="userSpaceOnUse">
<stop stop-color="#F7DD43"/>
<stop offset="1" stop-color="#F7DD43" stop-opacity="0"/>
</linearGradient>
<linearGradient id="paint89_linear_175_198" x1="954.5" y1="53" x2="954.5" y2="351.818" gradientUnits="userSpaceOnUse">
<stop stop-color="#F7DD43"/>
<stop offset="1" stop-color="#F7DD43" stop-opacity="0"/>
</linearGradient>
<linearGradient id="paint90_linear_175_198" x1="954.5" y1="53" x2="954.5" y2="351.818" gradientUnits="userSpaceOnUse">
<stop stop-color="#F7DD43"/>
<stop offset="1" stop-color="#F7DD43" stop-opacity="0"/>
</linearGradient>
<linearGradient id="paint91_linear_175_198" x1="954.5" y1="53" x2="954.5" y2="351.818" gradientUnits="userSpaceOnUse">
<stop stop-color="#F7DD43"/>
<stop offset="1" stop-color="#F7DD43" stop-opacity="0"/>
</linearGradient>
<linearGradient id="paint92_linear_175_198" x1="954.5" y1="53" x2="954.5" y2="351.818" gradientUnits="userSpaceOnUse">
<stop stop-color="#F7DD43"/>
<stop offset="1" stop-color="#F7DD43" stop-opacity="0"/>
</linearGradient>
<linearGradient id="paint93_linear_175_198" x1="954.5" y1="53" x2="954.5" y2="351.818" gradientUnits="userSpaceOnUse">
<stop stop-color="#F7DD43"/>
<stop offset="1" stop-color="#F7DD43" stop-opacity="0"/>
</linearGradient>
</defs>
</svg>
